<svg xmlns="http://www.w3.org/2000/svg" width="150" height="150" viewBox="0 0 150 150">
  <defs>
    <radialGradient id="glow" cx="50%" cy="48%" r="58%">
      <stop offset="0%" stop-color="#fff8e8" stop-opacity="1"/>
      <stop offset="70%" stop-color="#fff0d0" stop-opacity="0.45"/>
      <stop offset="100%" stop-color="#fff0d0" stop-opacity="0"/>
    </radialGradient>
    <linearGradient id="sheen" x1="0%" y1="0%" x2="0%" y2="100%">
      <stop offset="0%" stop-color="#ffffff" stop-opacity="0.5"/>
      <stop offset="100%" stop-color="#ffffff" stop-opacity="0"/>
    </linearGradient>
  </defs>
  <rect width="150" height="150" fill="url(#glow)"/>
  <rect x="4" y="4" width="44" height="44" fill="#faf4ea" fill-opacity="0.88"/>
  <rect x="53" y="4" width="44" height="44" fill="#f5ebdc" fill-opacity="0.85"/>
  <rect x="102" y="4" width="44" height="44" fill="#fff8ee" fill-opacity="0.9"/>
  <rect x="4" y="53" width="44" height="44" fill="#f0e8d8" fill-opacity="0.82"/>
  <rect x="53" y="53" width="44" height="44" fill="#fff6e8" fill-opacity="0.92"/>
  <rect x="102" y="53" width="44" height="44" fill="#f8eede" fill-opacity="0.86"/>
  <rect x="4" y="102" width="44" height="44" fill="#fffaf0" fill-opacity="0.88"/>
  <rect x="53" y="102" width="44" height="44" fill="#f2e6d4" fill-opacity="0.84"/>
  <rect x="102" y="102" width="44" height="44" fill="#fff8ea" fill-opacity="0.9"/>
  <g stroke="#3d3229" stroke-opacity="0.42" stroke-width="2.5" fill="none">
    <path d="M4 4 H146 V146 H4 Z"/>
    <path d="M53 4 V146"/>
    <path d="M102 4 V146"/>
    <path d="M4 53 H146"/>
    <path d="M4 102 H146"/>
  </g>
  <rect width="150" height="150" fill="url(#sheen)" opacity="0.35"/>
</svg>
