<svg xmlns="http://www.w3.org/2000/svg" width="200" height="200" viewBox="0 0 200 200">
  <defs>
    <radialGradient id="lumen" cx="38%" cy="32%" r="70%">
      <stop offset="0%" stop-color="#fff2cc" stop-opacity="0.95"/>
      <stop offset="55%" stop-color="#ffe8b0" stop-opacity="0.35"/>
      <stop offset="100%" stop-color="#ffe8b0" stop-opacity="0"/>
    </radialGradient>
    <linearGradient id="spec" x1="0%" y1="0%" x2="100%" y2="100%">
      <stop offset="0%" stop-color="#ffffff" stop-opacity="0.55"/>
      <stop offset="35%" stop-color="#ffffff" stop-opacity="0"/>
    </linearGradient>
  </defs>
  <rect width="200" height="200" fill="url(#lumen)"/>
  <rect x="5" y="5" width="92" height="92" fill="#e8b0b0" fill-opacity="0.78"/>
  <rect x="101" y="5" width="94" height="92" fill="#c8bdd8" fill-opacity="0.72"/>
  <rect x="5" y="101" width="44" height="44" fill="#fff0c0" fill-opacity="0.82"/>
  <rect x="53" y="101" width="44" height="44" fill="#b0c4a0" fill-opacity="0.68"/>
  <rect x="101" y="101" width="44" height="94" fill="#d8b888" fill-opacity="0.75"/>
  <rect x="149" y="101" width="46" height="44" fill="#d88888" fill-opacity="0.7"/>
  <rect x="5" y="149" width="44" height="46" fill="#dcc8e8" fill-opacity="0.65"/>
  <rect x="53" y="149" width="44" height="46" fill="#fff8dc" fill-opacity="0.8"/>
  <rect x="149" y="149" width="46" height="46" fill="#c0d0b8" fill-opacity="0.68"/>
  <g stroke="#3d3229" stroke-opacity="0.55" stroke-width="3.5" fill="none" stroke-linecap="square">
    <path d="M5 5 H195 V195 H5 Z"/>
    <path d="M101 5 V195"/>
    <path d="M5 101 H195"/>
    <path d="M53 101 V149"/>
    <path d="M5 149 H97"/>
    <path d="M149 101 V149"/>
    <path d="M101 149 H195"/>
  </g>
  <rect width="200" height="200" fill="url(#spec)"/>
</svg>
