<svg xmlns="http://www.w3.org/2000/svg" width="200" height="200" viewBox="0 0 200 200">
  <defs>
    <radialGradient id="warmLumen" cx="60%" cy="40%" r="68%">
      <stop offset="0%" stop-color="#ffe0a8" stop-opacity="0.9"/>
      <stop offset="100%" stop-color="#ffe0a8" stop-opacity="0"/>
    </radialGradient>
  </defs>
  <rect width="200" height="200" fill="url(#warmLumen)"/>
  <rect x="5" y="5" width="92" height="92" fill="#f0c8a0" fill-opacity="0.76"/>
  <rect x="101" y="5" width="94" height="92" fill="#e8b8b0" fill-opacity="0.72"/>
  <rect x="5" y="101" width="44" height="44" fill="#fff0c8" fill-opacity="0.85"/>
  <rect x="53" y="101" width="44" height="44" fill="#d8a888" fill-opacity="0.7"/>
  <rect x="101" y="101" width="44" height="94" fill="#f5dcc0" fill-opacity="0.78"/>
  <rect x="149" y="101" width="46" height="44" fill="#c89090" fill-opacity="0.68"/>
  <rect x="5" y="149" width="44" height="46" fill="#ffe8c8" fill-opacity="0.82"/>
  <rect x="53" y="149" width="44" height="46" fill="#e0c0a8" fill-opacity="0.72"/>
  <rect x="149" y="149" width="46" height="46" fill="#f0d8c0" fill-opacity="0.75"/>
  <g stroke="#3d3229" stroke-opacity="0.52" stroke-width="3.5" fill="none">
    <path d="M5 5 H195 V195 H5 Z"/>
    <path d="M101 5 V195"/>
    <path d="M5 101 H195"/>
    <path d="M53 101 V149"/>
    <path d="M5 149 H97"/>
    <path d="M149 101 V149"/>
    <path d="M101 149 H195"/>
  </g>
</svg>
