<svg xmlns="http://www.w3.org/2000/svg" viewBox="0 0 24 24" aria-hidden="true">
  <path fill="#fff" d="M5 3h14a2 2 0 0 1 2 2v14a2 2 0 0 1-2 2H5a2 2 0 0 1-2-2V5a2 2 0 0 1 2-2z"/>
  <path fill="#1a73e8" d="M5 3h14a2 2 0 0 1 2 2v5H3V5a2 2 0 0 1 2-2z"/>
  <path fill="#ea4335" d="M3 7h18v2H3z"/>
  <path fill="#34a853" d="M5 21V11h4v10H5z"/>
  <path fill="#fbbc04" d="M15 21V11h4v10h-4z"/>
  <text x="12" y="17.5" text-anchor="middle" font-family="Arial, sans-serif" font-size="7" font-weight="700" fill="#1a73e8">31</text>
</svg>
