<svg xmlns="http://www.w3.org/2000/svg" viewBox="0 0 390 844" fill="none" aria-hidden="true">
  <path fill="#e7e7ec" fill-rule="evenodd" clip-rule="evenodd" d="M52 0h286a52 52 0 0 1 52 52v740a52 52 0 0 1-52 52H52a52 52 0 0 1-52-52V52A52 52 0 0 1 52 0Zm3 16h280a36 36 0 0 1 36 36v744a36 36 0 0 1-36 36H55a36 36 0 0 1-36-36V52a36 36 0 0 1 36-36Z"/>
  <rect x="3" y="118" width="4" height="46" rx="2" fill="#c4c4ca"/>
  <rect x="3" y="178" width="4" height="72" rx="2" fill="#c4c4ca"/>
  <rect x="383" y="188" width="4" height="92" rx="2" fill="#c4c4ca"/>
  <rect x="122" y="16" width="146" height="27" rx="13.5" fill="#101014"/>
  <rect x="156" y="24" width="48" height="5.5" rx="2.75" fill="#2a2a30"/>
  <circle cx="246" cy="26.5" r="4.5" fill="#1a1a20"/>
</svg>
